M48
; DRILL file {KiCad (5.1.2-1)-1} date Wednesday, 02 October 2019 at 20:40:36
; FORMAT={-:-/ absolute / inch / decimal}
; #@! TF.CreationDate,2019-10-02T20:40:36+01:00
; #@! TF.GenerationSoftware,Kicad,Pcbnew,(5.1.2-1)-1
; #@! TF.FileFunction,Plated,1,2,PTH
FMAT,2
INCH
T1C0.0157
T2C0.0256
T3C0.0350
T4C0.0433
T5C0.1260
%
G90
G05
T1
X3.0807Y-0.748
X3.1201Y-0.748
X3.1594Y-0.748
X3.6516Y-0.2953
X3.6614Y-0.128
X3.7303Y-0.6791
X3.8287Y-0.6791
X3.9234Y-0.2226
X3.937Y-0.5217
X3.9566Y-0.3149
X3.9567Y-0.2657
X4.1043Y-0.5976
X4.1339Y-0.502
X4.1634Y-0.6299
X4.1929Y-0.5217
X4.2224Y-0.6594
X4.252Y-0.5413
X4.2815Y-0.689
X4.311Y-0.561
T2
X4.1929Y-0.1961
X4.1929Y-0.2461
X4.2429Y-0.1961
X4.2429Y-0.2461
X4.2929Y-0.1961
X4.2929Y-0.2461
X4.3429Y-0.1961
X4.3429Y-0.2461
X4.3929Y-0.1961
X4.3929Y-0.2461
T3
X3.4594Y-0.9844
X3.4594Y-1.1533
X3.5445Y-0.9844
X3.5445Y-1.1533
X3.6295Y-0.9844
X3.6295Y-1.1533
X3.7146Y-0.9844
X3.7146Y-1.1533
X3.7996Y-0.9844
X3.7996Y-1.1533
X3.8846Y-0.9844
X3.8846Y-1.1533
X3.9697Y-0.9844
X3.9697Y-1.1533
X4.0547Y-0.9844
X4.0547Y-1.1533
X4.1398Y-0.9844
X4.1398Y-1.1533
X4.2248Y-0.9844
X4.2248Y-1.1533
X4.3098Y-0.9844
X4.3098Y-1.1533
X4.3949Y-0.9844
X4.3949Y-1.1533
T4
X4.626Y-0.3839
X4.626Y-0.561
X4.8819Y-0.3839
X4.8819Y-0.561
T5
X3.0061Y-1.0689
X4.8482Y-1.0689
T0
M30
