G04 #@! TF.GenerationSoftware,KiCad,Pcbnew,(5.1.2-1)-1*
G04 #@! TF.CreationDate,2019-10-02T20:40:30+01:00*
G04 #@! TF.ProjectId,GPIB Serial Adapter,47504942-2053-4657-9269-616c20416461,rev?*
G04 #@! TF.SameCoordinates,Original*
G04 #@! TF.FileFunction,Copper,L1,Top*
G04 #@! TF.FilePolarity,Positive*
%FSLAX46Y46*%
G04 Gerber Fmt 4.6, Leading zero omitted, Abs format (unit mm)*
G04 Created by KiCad (PCBNEW (5.1.2-1)-1) date 2019-10-02 20:40:30*
%MOMM*%
%LPD*%
G04 APERTURE LIST*
%ADD10C,2.000000*%
%ADD11R,1.200000X0.900000*%
%ADD12R,1.500000X1.300000*%
%ADD13R,1.200000X0.750000*%
%ADD14R,1.000000X1.000000*%
%ADD15O,1.000000X1.000000*%
%ADD16R,1.300000X0.250000*%
%ADD17R,0.250000X1.300000*%
%ADD18R,2.000000X2.500000*%
%ADD19R,0.500000X2.300000*%
%ADD20C,1.390000*%
%ADD21C,4.800000*%
%ADD22C,0.800000*%
%ADD23C,0.254000*%
%ADD24C,0.250000*%
%ADD25C,0.762000*%
%ADD26C,0.508000*%
G04 APERTURE END LIST*
D10*
X124000000Y-9750000D03*
X124000000Y-14250000D03*
X117500000Y-9750000D03*
X117500000Y-14250000D03*
D11*
X112600000Y-10750000D03*
X110400000Y-10750000D03*
X112600000Y-9000000D03*
X110400000Y-9000000D03*
D12*
X124350000Y-5750000D03*
X121650000Y-5750000D03*
X124350000Y-3250000D03*
X121650000Y-3250000D03*
D13*
X98200000Y-6000000D03*
X96300000Y-6000000D03*
X98200000Y-7500000D03*
X96300000Y-7500000D03*
X88550000Y-21250000D03*
X90450000Y-21250000D03*
X88550000Y-19750000D03*
X90450000Y-19750000D03*
X88550000Y-16000000D03*
X90450000Y-16000000D03*
X88550000Y-17750000D03*
X90450000Y-17750000D03*
X81700000Y-16000000D03*
X79800000Y-16000000D03*
X77200000Y-18250000D03*
X75300000Y-18250000D03*
D14*
X106500000Y-6250000D03*
D15*
X106500000Y-4980000D03*
X107770000Y-6250000D03*
X107770000Y-4980000D03*
X109040000Y-6250000D03*
X109040000Y-4980000D03*
X110310000Y-6250000D03*
X110310000Y-4980000D03*
X111580000Y-6250000D03*
X111580000Y-4980000D03*
D16*
X101600000Y-17000000D03*
X101600000Y-16500000D03*
X101600000Y-16000000D03*
X101600000Y-15500000D03*
X101600000Y-15000000D03*
X101600000Y-14500000D03*
X101600000Y-14000000D03*
X101600000Y-13500000D03*
X101600000Y-13000000D03*
X101600000Y-12500000D03*
X101600000Y-12000000D03*
X101600000Y-11500000D03*
D17*
X100000000Y-9900000D03*
X99500000Y-9900000D03*
X99000000Y-9900000D03*
X98500000Y-9900000D03*
X98000000Y-9900000D03*
X97500000Y-9900000D03*
X97000000Y-9900000D03*
X96500000Y-9900000D03*
X96000000Y-9900000D03*
X95500000Y-9900000D03*
X95000000Y-9900000D03*
X94500000Y-9900000D03*
D16*
X92900000Y-11500000D03*
X92900000Y-12000000D03*
X92900000Y-12500000D03*
X92900000Y-13000000D03*
X92900000Y-13500000D03*
X92900000Y-14000000D03*
X92900000Y-14500000D03*
X92900000Y-15000000D03*
X92900000Y-15500000D03*
X92900000Y-16000000D03*
X92900000Y-16500000D03*
X92900000Y-17000000D03*
D17*
X94500000Y-18600000D03*
X95000000Y-18600000D03*
X95500000Y-18600000D03*
X96000000Y-18600000D03*
X96500000Y-18600000D03*
X97000000Y-18600000D03*
X97500000Y-18600000D03*
X98000000Y-18600000D03*
X98500000Y-18600000D03*
X99000000Y-18600000D03*
X99500000Y-18600000D03*
X100000000Y-18600000D03*
D12*
X77600000Y-16250000D03*
X74900000Y-16250000D03*
D18*
X84750000Y-12500000D03*
X80750000Y-12500000D03*
D11*
X89250000Y-4350000D03*
X89250000Y-7650000D03*
D19*
X82100000Y-8800000D03*
X81300000Y-8800000D03*
X80500000Y-8800000D03*
X79700000Y-8800000D03*
X78900000Y-8800000D03*
D18*
X84950000Y-8700000D03*
X84950000Y-3200000D03*
X76050000Y-8700000D03*
X76050000Y-3200000D03*
D20*
X111630000Y-25005000D03*
X111630000Y-29295000D03*
X109470000Y-25005000D03*
X109470000Y-29295000D03*
X107310000Y-25005000D03*
X107310000Y-29295000D03*
X105150000Y-25005000D03*
X105150000Y-29295000D03*
X102990000Y-25005000D03*
X102990000Y-29295000D03*
X100830000Y-25005000D03*
X100830000Y-29295000D03*
X98670000Y-25005000D03*
X98670000Y-29295000D03*
X96510000Y-25005000D03*
X96510000Y-29295000D03*
X94350000Y-25005000D03*
X94350000Y-29295000D03*
X92190000Y-25005000D03*
X92190000Y-29295000D03*
X90030000Y-25005000D03*
X90030000Y-29295000D03*
X87870000Y-25005000D03*
X87870000Y-29295000D03*
D21*
X76355000Y-27150000D03*
X123145000Y-27150000D03*
D22*
X108750000Y-17500000D03*
X107250000Y-16750000D03*
X105750000Y-16000000D03*
X104250000Y-15179410D03*
X80250000Y-19000000D03*
X79250000Y-19000000D03*
X78250000Y-19000000D03*
X94750000Y-17250000D03*
X97250000Y-17250000D03*
X100000000Y-13250000D03*
X99654000Y-5654000D03*
X109500000Y-14250000D03*
X108000000Y-13750000D03*
X106500000Y-13250000D03*
X105000000Y-12750000D03*
X100498000Y-7998000D03*
X100500000Y-6750000D03*
X93000000Y-3250000D03*
X92750000Y-7500000D03*
D23*
X101600000Y-16500000D02*
X103200000Y-16500000D01*
X103850000Y-17150000D02*
X104000000Y-17300000D01*
X103200000Y-16500000D02*
X103850000Y-17150000D01*
X104200000Y-17500000D02*
X103850000Y-17150000D01*
X108750000Y-17500000D02*
X104200000Y-17500000D01*
X101600000Y-16000000D02*
X103350000Y-16000000D01*
X103800000Y-16450000D02*
X103970590Y-16620590D01*
X103350000Y-16000000D02*
X103800000Y-16450000D01*
X104100000Y-16750000D02*
X103800000Y-16450000D01*
X107250000Y-16750000D02*
X104100000Y-16750000D01*
X103500000Y-15500000D02*
X101600000Y-15500000D01*
X104000000Y-16000000D02*
X103500000Y-15500000D01*
X105750000Y-16000000D02*
X104000000Y-16000000D01*
X101600000Y-15000000D02*
X104070590Y-15000000D01*
X104070590Y-15000000D02*
X104250000Y-15179410D01*
X102990000Y-25005000D02*
X102990000Y-23240000D01*
X100000000Y-20250000D02*
X100000000Y-18600000D01*
X102990000Y-23240000D02*
X100000000Y-20250000D01*
X99500000Y-22692122D02*
X99500000Y-19504000D01*
X99500000Y-19504000D02*
X99500000Y-18600000D01*
X100830000Y-24022122D02*
X99500000Y-22692122D01*
X100830000Y-25005000D02*
X100830000Y-24022122D01*
X99000000Y-23692122D02*
X99000000Y-19504000D01*
X99000000Y-19504000D02*
X99000000Y-18600000D01*
X98670000Y-24022122D02*
X99000000Y-23692122D01*
X98670000Y-25005000D02*
X98670000Y-24022122D01*
X98500000Y-23015000D02*
X98500000Y-18600000D01*
X96510000Y-25005000D02*
X98500000Y-23015000D01*
X98000000Y-21355000D02*
X98000000Y-18600000D01*
X94350000Y-25005000D02*
X98000000Y-21355000D01*
X97500000Y-21000000D02*
X97500000Y-18600000D01*
X95277500Y-23222500D02*
X97500000Y-21000000D01*
X93972500Y-23222500D02*
X95277500Y-23222500D01*
X92190000Y-25005000D02*
X93972500Y-23222500D01*
X97000000Y-20750000D02*
X97000000Y-18600000D01*
X90030000Y-25005000D02*
X92267500Y-22767500D01*
X92267500Y-22767500D02*
X92267500Y-22732500D01*
X92500000Y-22500000D02*
X95250000Y-22500000D01*
X92267500Y-22732500D02*
X92500000Y-22500000D01*
X95250000Y-22500000D02*
X97000000Y-20750000D01*
D24*
X77200000Y-16650000D02*
X77600000Y-16250000D01*
X77700000Y-16250000D02*
X77600000Y-16250000D01*
D25*
X87870000Y-29295000D02*
X90030000Y-29295000D01*
X90030000Y-29295000D02*
X92190000Y-29295000D01*
X92190000Y-29295000D02*
X94350000Y-29295000D01*
X77600000Y-17850000D02*
X77200000Y-18250000D01*
X77600000Y-16250000D02*
X77600000Y-17850000D01*
X79550000Y-16250000D02*
X79800000Y-16000000D01*
X77600000Y-17850000D02*
X77600000Y-18600000D01*
X77600000Y-18600000D02*
X78000000Y-19000000D01*
X78000000Y-19000000D02*
X78250000Y-19000000D01*
X80250000Y-19000000D02*
X80250000Y-19000000D01*
X79250000Y-19000000D02*
X80250000Y-19000000D01*
X78250000Y-19000000D02*
X79250000Y-19000000D01*
D26*
X78550000Y-15400000D02*
X78550000Y-16250000D01*
X78900000Y-8800000D02*
X78900000Y-15050000D01*
D25*
X78550000Y-16250000D02*
X79550000Y-16250000D01*
D26*
X78900000Y-15050000D02*
X78550000Y-15400000D01*
D25*
X77600000Y-16250000D02*
X78550000Y-16250000D01*
X100830000Y-29295000D02*
X98670000Y-29295000D01*
X98670000Y-29295000D02*
X96510000Y-29295000D01*
X96510000Y-29295000D02*
X94350000Y-29295000D01*
X87870000Y-29295000D02*
X87870000Y-25005000D01*
D23*
X93000000Y-19750000D02*
X92000000Y-18750000D01*
X94754000Y-19750000D02*
X93000000Y-19750000D01*
X95000000Y-19504000D02*
X94754000Y-19750000D01*
X92000000Y-18750000D02*
X88750000Y-18750000D01*
X95000000Y-18600000D02*
X95000000Y-19504000D01*
X97750000Y-12500000D02*
X96500000Y-13750000D01*
D25*
X80250000Y-19000000D02*
X83750000Y-19000000D01*
X84050000Y-18700000D02*
X88550000Y-18700000D01*
X83750000Y-19000000D02*
X84050000Y-18700000D01*
X88550000Y-16000000D02*
X88550000Y-17750000D01*
X88550000Y-17750000D02*
X88550000Y-18700000D01*
X88550000Y-18700000D02*
X88550000Y-19750000D01*
X88550000Y-19750000D02*
X88550000Y-21250000D01*
X88550000Y-21250000D02*
X88550000Y-22450000D01*
X87870000Y-23130000D02*
X87870000Y-25005000D01*
X88550000Y-22450000D02*
X87870000Y-23130000D01*
D26*
X111580000Y-6250000D02*
X110310000Y-6250000D01*
X110310000Y-6250000D02*
X109040000Y-6250000D01*
X109040000Y-6250000D02*
X107770000Y-6250000D01*
X107770000Y-6957106D02*
X107227106Y-7500000D01*
X107770000Y-6250000D02*
X107770000Y-6957106D01*
X107227106Y-7500000D02*
X105000000Y-7500000D01*
X105000000Y-7500000D02*
X102750000Y-5250000D01*
X100058000Y-5250000D02*
X99654000Y-5654000D01*
X99308000Y-6000000D02*
X98200000Y-6000000D01*
X102750000Y-5250000D02*
X100058000Y-5250000D01*
X98200000Y-6000000D02*
X98200000Y-7500000D01*
D23*
X95000000Y-17500000D02*
X94750000Y-17250000D01*
X95000000Y-18600000D02*
X95000000Y-17500000D01*
X90620000Y-23130000D02*
X87870000Y-23130000D01*
X92000000Y-21750000D02*
X90620000Y-23130000D01*
X95250000Y-21750000D02*
X92000000Y-21750000D01*
X96500000Y-20500000D02*
X95250000Y-21750000D01*
X96500000Y-18600000D02*
X96500000Y-20500000D01*
X96500000Y-17250000D02*
X97250000Y-17250000D01*
X96500000Y-13750000D02*
X96500000Y-17250000D01*
X96500000Y-17250000D02*
X96500000Y-18600000D01*
X100250000Y-13000000D02*
X100000000Y-13250000D01*
X101600000Y-12500000D02*
X100250000Y-12500000D01*
X100250000Y-12500000D02*
X100250000Y-13000000D01*
X100250000Y-12500000D02*
X97750000Y-12500000D01*
D26*
X99654000Y-5654000D02*
X99308000Y-6000000D01*
X117500000Y-9750000D02*
X124000000Y-9750000D01*
X124350000Y-9400000D02*
X124000000Y-9750000D01*
X124350000Y-5750000D02*
X124350000Y-9400000D01*
X124350000Y-5750000D02*
X124350000Y-3250000D01*
X124350000Y-2092000D02*
X124008000Y-1750000D01*
X124350000Y-3250000D02*
X124350000Y-2092000D01*
X124008000Y-1750000D02*
X115000000Y-1750000D01*
X115000000Y-1750000D02*
X112750000Y-4000000D01*
X112287106Y-6250000D02*
X111580000Y-6250000D01*
X112750000Y-5787106D02*
X112287106Y-6250000D01*
X112750000Y-4000000D02*
X112750000Y-5787106D01*
D23*
X101600000Y-14500000D02*
X109250000Y-14500000D01*
X109250000Y-14500000D02*
X109500000Y-14250000D01*
X107750000Y-14000000D02*
X108000000Y-13750000D01*
X101600000Y-14000000D02*
X107750000Y-14000000D01*
X106250000Y-13500000D02*
X106500000Y-13250000D01*
X101600000Y-13500000D02*
X106250000Y-13500000D01*
X104750000Y-13000000D02*
X105000000Y-12750000D01*
X101600000Y-13000000D02*
X104750000Y-13000000D01*
X102990000Y-29295000D02*
X104050000Y-28150000D01*
X101600000Y-17000000D02*
X102125000Y-17000000D01*
X104050000Y-28150000D02*
X104050000Y-23300000D01*
X104050000Y-23300000D02*
X104050000Y-22550000D01*
X101600000Y-20100000D02*
X101600000Y-17000000D01*
X104050000Y-22550000D02*
X101600000Y-20100000D01*
D24*
X76150000Y-8800000D02*
X76050000Y-8700000D01*
D25*
X76050000Y-8700000D02*
X76050000Y-3200000D01*
X84950000Y-3200000D02*
X76050000Y-3200000D01*
X74900000Y-11862000D02*
X74900000Y-16250000D01*
X76050000Y-10712000D02*
X74900000Y-11862000D01*
X76050000Y-8700000D02*
X76050000Y-10712000D01*
X75300000Y-16650000D02*
X74900000Y-16250000D01*
X75300000Y-18250000D02*
X75300000Y-16650000D01*
D26*
X82100000Y-11150000D02*
X80750000Y-12500000D01*
X82100000Y-8800000D02*
X82100000Y-11150000D01*
X81700000Y-13450000D02*
X80750000Y-12500000D01*
X81700000Y-16000000D02*
X81700000Y-13450000D01*
X89250000Y-4350000D02*
X94400000Y-4350000D01*
D23*
X96000000Y-7800000D02*
X96300000Y-7500000D01*
X96000000Y-9900000D02*
X96000000Y-7800000D01*
D26*
X96300000Y-7500000D02*
X96300000Y-6000000D01*
X95900000Y-4350000D02*
X96650000Y-4350000D01*
X96300000Y-6000000D02*
X96300000Y-5050000D01*
X96300000Y-5050000D02*
X95600000Y-4350000D01*
X95600000Y-4350000D02*
X95900000Y-4350000D01*
X94400000Y-4350000D02*
X95600000Y-4350000D01*
D23*
X95500000Y-18600000D02*
X95500000Y-17000000D01*
X95500000Y-17000000D02*
X96000000Y-17000000D01*
X96000000Y-17000000D02*
X96000000Y-18600000D01*
X96000000Y-9900000D02*
X96000000Y-17000000D01*
D26*
X90450000Y-19750000D02*
X90450000Y-21250000D01*
D23*
X95250000Y-20250000D02*
X92750000Y-20250000D01*
X92250000Y-19750000D02*
X90450000Y-19750000D01*
X92750000Y-20250000D02*
X92250000Y-19750000D01*
X95500000Y-20000000D02*
X95250000Y-20250000D01*
X95500000Y-18600000D02*
X95500000Y-20000000D01*
X95500000Y-20750000D02*
X92750000Y-20750000D01*
X92750000Y-20750000D02*
X92250000Y-21250000D01*
X96000000Y-20250000D02*
X95500000Y-20750000D01*
X92250000Y-21250000D02*
X90450000Y-21250000D01*
X96000000Y-18600000D02*
X96000000Y-20250000D01*
D26*
X103592000Y-4350000D02*
X96650000Y-4350000D01*
X105492000Y-6250000D02*
X103592000Y-4350000D01*
X106500000Y-6250000D02*
X105492000Y-6250000D01*
X89250000Y-8608000D02*
X89250000Y-7650000D01*
X84750000Y-12500000D02*
X86258000Y-12500000D01*
X89250000Y-9508000D02*
X89250000Y-9250000D01*
X89250000Y-9250000D02*
X89250000Y-8608000D01*
D23*
X87258000Y-11500000D02*
X87129000Y-11629000D01*
X92900000Y-11500000D02*
X87258000Y-11500000D01*
D26*
X87129000Y-11629000D02*
X89250000Y-9508000D01*
X86258000Y-12500000D02*
X87129000Y-11629000D01*
D23*
X94500000Y-18600000D02*
X92850000Y-18600000D01*
X92000000Y-17750000D02*
X90450000Y-17750000D01*
X92850000Y-18600000D02*
X92000000Y-17750000D01*
X99500000Y-9900000D02*
X99500000Y-8996000D01*
X99500000Y-8996000D02*
X100498000Y-7998000D01*
X98500000Y-8996000D02*
X99500000Y-7996000D01*
X98500000Y-9900000D02*
X98500000Y-8996000D01*
X99500000Y-7750000D02*
X99500000Y-7996000D01*
X100500000Y-6750000D02*
X99500000Y-7750000D01*
X90675000Y-16000000D02*
X90450000Y-16000000D01*
X91675000Y-17000000D02*
X90675000Y-16000000D01*
X92900000Y-17000000D02*
X91675000Y-17000000D01*
X92750000Y-9427922D02*
X92750000Y-7500000D01*
X94750000Y-11750000D02*
X92750000Y-9750000D01*
X94750000Y-16250000D02*
X94750000Y-11750000D01*
X92750000Y-9750000D02*
X92750000Y-9427922D01*
X94000000Y-17000000D02*
X94750000Y-16250000D01*
X92900000Y-17000000D02*
X94000000Y-17000000D01*
X93250000Y-3500000D02*
X93000000Y-3250000D01*
X110100000Y-3500000D02*
X93250000Y-3500000D01*
X111580000Y-4980000D02*
X110100000Y-3500000D01*
D24*
X81900000Y-4800000D02*
X80500000Y-6200000D01*
X84449990Y-5649990D02*
X83600000Y-4800000D01*
X80500000Y-6200000D02*
X80500000Y-8800000D01*
X83600000Y-4800000D02*
X81900000Y-4800000D01*
X91399990Y-5649990D02*
X84449990Y-5649990D01*
D23*
X93649990Y-5649990D02*
X91653990Y-5649990D01*
X91653990Y-5649990D02*
X91399990Y-5649990D01*
X95000000Y-7000000D02*
X93649990Y-5649990D01*
X95000000Y-9900000D02*
X95000000Y-7000000D01*
D24*
X83400000Y-5300000D02*
X84200000Y-6100000D01*
X82100000Y-5300000D02*
X83400000Y-5300000D01*
X81300000Y-6100000D02*
X82100000Y-5300000D01*
X81300000Y-8800000D02*
X81300000Y-6100000D01*
X84200000Y-6100000D02*
X90350000Y-6100000D01*
D23*
X93350000Y-6100000D02*
X94500000Y-7250000D01*
X91350000Y-7000000D02*
X91350000Y-6100000D01*
X90650000Y-7000000D02*
X91350000Y-7000000D01*
X94500000Y-7250000D02*
X94500000Y-9900000D01*
X90650000Y-6100000D02*
X90650000Y-7000000D01*
X91350000Y-6100000D02*
X93350000Y-6100000D01*
X90350000Y-6100000D02*
X90650000Y-6100000D01*
X112750000Y-9000000D02*
X118500000Y-3250000D01*
X112600000Y-9000000D02*
X112750000Y-9000000D01*
X118500000Y-3250000D02*
X121650000Y-3250000D01*
X100000000Y-9900000D02*
X107850000Y-9900000D01*
X108750000Y-9000000D02*
X110400000Y-9000000D01*
X107850000Y-9900000D02*
X108750000Y-9000000D01*
X113454000Y-10750000D02*
X114500000Y-9704000D01*
X112600000Y-10750000D02*
X113454000Y-10750000D01*
X114500000Y-9704000D02*
X114500000Y-8500000D01*
X117250000Y-5750000D02*
X121650000Y-5750000D01*
X114500000Y-8500000D02*
X117250000Y-5750000D01*
X98446000Y-11250000D02*
X98000000Y-10804000D01*
X98000000Y-10804000D02*
X98000000Y-9900000D01*
X100250000Y-11250000D02*
X98446000Y-11250000D01*
X100750000Y-10750000D02*
X100250000Y-11250000D01*
X110400000Y-10750000D02*
X100750000Y-10750000D01*
X115750000Y-12500000D02*
X117500000Y-14250000D01*
X109000000Y-12500000D02*
X115750000Y-12500000D01*
X108000000Y-11500000D02*
X109000000Y-12500000D01*
X101600000Y-11500000D02*
X108000000Y-11500000D01*
X117500000Y-14250000D02*
X124000000Y-14250000D01*
M02*
